<?xml version="1.0" standalone="no"?>
<!DOCTYPE svg PUBLIC "-//W3C//DTD SVG 20010904//EN"
 "http://www.w3.org/TR/2001/REC-SVG-20010904/DTD/svg10.dtd">
<svg version="1.0" xmlns="http://www.w3.org/2000/svg"
 width="149.000000pt" height="63.000000pt" viewBox="0 0 149.000000 63.000000"
 preserveAspectRatio="xMidYMid meet">

<g transform="translate(0.000000,63.000000) scale(0.100000,-0.100000)"
fill="#000000" stroke="none">
<path d="M498 612 c-2 -4 -22 -19 -45 -35 -24 -15 -43 -33 -43 -39 0 -6 10 -2
23 9 29 26 67 46 75 39 3 -4 -11 -21 -31 -40 -20 -19 -37 -38 -37 -43 0 -6 18
8 41 29 49 47 67 42 21 -5 -18 -18 -32 -39 -32 -47 1 -10 4 -8 12 5 17 32 50
65 64 65 8 0 1 -19 -18 -50 -17 -28 -29 -53 -25 -56 3 -3 13 10 22 30 24 50
36 58 73 45 28 -10 30 -12 21 -42 -5 -18 -8 -43 -8 -57 1 -20 2 -21 6 -5 16
70 25 95 34 95 6 0 8 -23 4 -62 -3 -43 -2 -57 4 -43 5 11 10 40 12 65 l1 45 9
-59 c12 -79 21 -85 18 -11 -4 74 12 75 28 3 l12 -53 -5 60 c-5 66 10 61 21 -7
4 -21 11 -38 15 -38 5 0 3 21 -5 48 -17 55 -18 62 -7 62 5 0 19 -22 32 -50 29
-63 39 -58 11 5 -24 54 -25 59 -11 50 6 -4 20 -24 31 -47 11 -22 23 -37 26
-34 3 3 -7 26 -22 51 -46 80 -10 68 47 -15 9 -14 17 -20 17 -14 1 6 -15 29
-35 52 -19 23 -33 42 -29 42 15 0 57 -35 70 -59 8 -14 14 -19 15 -11 0 8 -17
31 -37 52 -23 24 -31 38 -22 38 17 0 59 -26 77 -48 6 -9 12 -11 12 -5 0 6 -15
23 -32 37 -18 15 -38 30 -44 35 -8 7 -20 1 -35 -16 -78 -84 -228 -81 -301 5
-15 18 -28 28 -30 24z"/>
<path d="M551 481 c-12 -22 -21 -46 -21 -53 1 -7 12 9 26 35 14 27 23 51 20
54 -2 3 -14 -13 -25 -36z"/>
<path d="M600 509 c0 -2 -7 -25 -15 -51 -8 -27 -11 -48 -7 -48 10 0 35 91 27
98 -3 3 -5 3 -5 1z"/>
<path d="M41 358 c0 -7 24 -87 53 -178 l52 -165 36 -3 37 -3 37 120 c20 66 40
118 44 116 3 -2 22 -56 41 -119 l34 -116 37 0 c32 0 38 4 47 33 5 17 29 93 52
167 23 74 44 141 47 148 3 10 -6 12 -39 10 l-44 -3 -30 -112 c-16 -62 -32
-113 -35 -113 -3 0 -21 51 -41 113 l-34 112 -35 0 -34 0 -37 -120 c-21 -66
-38 -118 -39 -115 -1 3 -16 57 -33 120 l-32 115 -43 3 c-30 2 -42 -1 -41 -10z"/>
<path d="M610 190 l0 -180 40 0 40 0 0 180 0 180 -40 0 -40 0 0 -180z"/>
<path d="M760 190 l0 -180 35 0 34 0 3 116 3 116 90 -114 c78 -98 94 -113 123
-116 l32 -3 0 180 0 181 -35 0 -34 0 -3 -117 -3 -118 -93 118 c-81 102 -96
117 -122 117 l-30 0 0 -180z"/>
<path d="M1130 190 l0 -180 40 0 40 0 0 74 c0 113 24 113 101 0 49 -74 50 -74
95 -74 33 0 43 3 38 13 -24 41 -109 163 -117 168 -5 4 15 40 45 80 77 105 76
99 24 99 -45 0 -45 0 -96 -75 -34 -51 -57 -75 -70 -75 -18 0 -20 7 -20 75 l0
75 -40 0 -40 0 0 -180z"/>
</g>
</svg>
